<?xml version="1.0" standalone="no"?>
<!DOCTYPE svg PUBLIC "-//W3C//DTD SVG 20010904//EN"
 "http://www.w3.org/TR/2001/REC-SVG-20010904/DTD/svg10.dtd">
<svg version="1.0" xmlns="http://www.w3.org/2000/svg"
 width="700.000000pt" height="700.000000pt" viewBox="0 0 700.000000 700.000000"
 preserveAspectRatio="xMidYMid meet">
<metadata>
Created by potrace 1.14, written by Peter Selinger 2001-2017
</metadata>
<g transform="translate(0.000000,700.000000) scale(0.100000,-0.100000)"
fill="#000000" stroke="none">
<path d="M923 5231 c-17 -11 -35 -30 -39 -43 -11 -30 -12 -3328 -1 -3368 5
-19 20 -38 40 -50 32 -20 67 -20 2580 -20 2379 0 2550 1 2574 17 14 9 31 31
38 48 9 23 11 423 10 1685 -2 910 -3 1663 -4 1673 0 11 -14 31 -30 47 -27 24
-38 27 -105 29 -67 2 -76 0 -77 -16 0 -10 -2 -731 -2 -1603 -2 -1496 -3 -1586
-20 -1611 -9 -14 -29 -31 -43 -37 -18 -9 -303 -12 -1074 -12 l-1050 0 0 28
c-1 28 0 2696 0 2910 l0 122 545 0 545 0 1 35 c0 19 1 51 1 70 0 19 -1 53 -1
75 l-1 40 -1927 0 c-1886 0 -1929 0 -1960 -19z m2357 -238 c0 -60 1 -2923 0
-2975 l0 -48 -1052 0 c-1009 0 -1054 1 -1084 19 -20 12 -34 31 -41 57 -7 27
-10 470 -9 1474 1 1347 2 1437 18 1460 37 51 -9 49 1116 50 l1052 0 0 -37z"/>
<path d="M1401 4589 c-76 -16 -92 -55 -88 -223 2 -150 14 -181 74 -201 19 -6
317 -10 814 -10 731 1 786 2 810 18 43 29 52 65 52 211 -1 106 -4 138 -17 158
-35 53 -7 52 -841 52 -426 1 -788 -2 -804 -5z"/>
<path d="M1375 3707 c-54 -30 -62 -54 -64 -200 -1 -143 9 -181 57 -210 26 -15
100 -16 817 -16 855 0 824 -2 861 55 14 20 17 51 17 165 -1 124 -3 144 -20
167 -11 15 -30 32 -43 39 -32 16 -1596 16 -1625 0z"/>
<path d="M1368 2827 c-45 -27 -55 -65 -56 -204 -1 -137 7 -169 55 -200 24 -16
86 -17 807 -18 478 0 793 3 811 9 69 22 78 49 78 222 -1 147 -9 172 -66 195
-25 11 -189 13 -816 14 -733 0 -786 -1 -813 -18z"/>
<path d="M5088 5234 c-59 -31 -58 -21 -58 -639 0 -364 4 -573 10 -585 6 -11
17 -17 25 -14 8 3 59 65 113 137 122 162 130 170 182 170 51 0 60 -8 178 -166
103 -138 125 -159 141 -129 5 10 9 244 9 587 0 622 2 609 -58 640 -42 22 -502
21 -542 -1z"/>
<path d="M4028 4592 c-40 -5 -88 -56 -89 -95 -1 -34 -1 -167 0 -232 1 -45 31
-87 71 -100 14 -5 199 -9 413 -10 382 0 387 0 387 20 1 34 1 348 1 385 l-1 35
-378 0 c-207 0 -389 -1 -404 -3z"/>
<path d="M3992 3700 c-49 -30 -54 -50 -55 -202 0 -124 3 -143 20 -166 11 -15
31 -32 44 -39 18 -9 217 -12 813 -12 764 0 791 0 821 19 17 11 36 30 42 42 17
39 16 272 -1 313 -28 66 4 63 -867 63 -748 0 -788 -1 -817 -18z"/>
<path d="M4034 2842 c-36 -6 -66 -26 -82 -57 -22 -42 -20 -293 3 -328 34 -53
8 -51 847 -52 495 0 792 4 812 10 17 6 40 24 52 42 19 29 22 47 23 158 1 141
-10 182 -55 211 -26 17 -73 18 -804 19 -427 0 -785 -1 -796 -3z"/>
</g>
</svg>
